<svg width="343" height="29" viewBox="0 0 343 29" fill="none" xmlns="http://www.w3.org/2000/svg">
<path fill-rule="evenodd" clip-rule="evenodd" d="M5.353 4.77H17.683C18.43 4.77 19 4.182 19 3.512V1.756C19 1.044 18.43 0.5 17.684 0.5H2.72C2.368 0.5 2.017 0.626 1.754 0.877L0.395 2.174C0.132 2.425 0 2.718 0 3.054V25.905C0 26.24 0.132 26.575 0.395 26.825L1.755 28.123C2.018 28.374 2.37 28.5 2.721 28.5H17.684C18.43 28.5 19 27.914 19 27.244V25.486C19 24.775 18.43 24.189 17.684 24.189H5.354C4.871 24.189 4.476 23.854 4.476 23.394V17.45C4.476 16.99 4.871 16.613 5.353 16.613H15.621C16.323 16.613 16.938 16.069 16.938 15.357V13.6C16.938 12.93 16.323 12.345 15.621 12.345H5.353C4.871 12.345 4.476 11.968 4.476 11.507V5.607C4.476 5.146 4.871 4.77 5.353 4.77Z" fill="#4456EB"/>
<path fill-rule="evenodd" clip-rule="evenodd" d="M43.877 0.5H26.123C25.499 0.5 25 1.002 25 1.63V3.64C25 4.268 25.5 4.812 26.123 4.812H32.193C32.567 4.812 32.858 5.105 32.858 5.482V27.37C32.858 27.998 33.358 28.5 33.981 28.5H36.019C36.643 28.5 37.142 27.998 37.142 27.37V5.48C37.142 5.104 37.432 4.81 37.807 4.81H43.877C44.501 4.81 45 4.268 45 3.64V1.63C45 1.002 44.501 0.5 43.877 0.5Z" fill="#4456EB"/>
<path fill-rule="evenodd" clip-rule="evenodd" d="M67.917 0.5C67.25 0.5 66.75 1.042 66.75 1.708V11.625C66.75 12.042 66.375 12.375 65.958 12.375H56C55.9014 12.3754 55.8037 12.3563 55.7125 12.3187C55.6213 12.2812 55.5385 12.2259 55.4688 12.1562C55.3991 12.0865 55.3438 12.0037 55.3063 11.9125C55.2687 11.8213 55.2496 11.7236 55.25 11.625V1.708C55.2495 1.38778 55.122 1.08083 54.8956 0.854399C54.6692 0.62797 54.3622 0.500529 54.042 0.5H52.167C51.542 0.5 51 1.042 51 1.708V27.333C51 27.958 51.542 28.5 52.167 28.5H54.042C54.708 28.5 55.25 27.958 55.25 27.333V17.375C55.25 16.958 55.583 16.625 56 16.625H65.958C66.375 16.625 66.75 16.958 66.75 17.375V27.333C66.75 27.958 67.25 28.5 67.917 28.5H69.792C70.458 28.5 71 27.958 71 27.333V1.708C70.9995 1.38778 70.872 1.08083 70.6456 0.854399C70.4192 0.62797 70.1122 0.500529 69.792 0.5H67.917Z" fill="#4456EB"/>
<path fill-rule="evenodd" clip-rule="evenodd" d="M82.353 4.77H94.683C95.43 4.77 96 4.182 96 3.512V1.756C96 1.044 95.43 0.5 94.684 0.5H79.72C79.368 0.5 79.017 0.626 78.754 0.877L77.395 2.174C77.132 2.425 77 2.718 77 3.054V25.905C77 26.24 77.132 26.575 77.395 26.825L78.755 28.123C79.018 28.374 79.37 28.5 79.721 28.5H94.684C95.43 28.5 96 27.914 96 27.244V25.486C96 24.775 95.43 24.189 94.684 24.189H82.354C81.871 24.189 81.476 23.854 81.476 23.394V17.45C81.476 16.99 81.871 16.613 82.353 16.613H92.621C93.323 16.613 93.938 16.069 93.938 15.357V13.6C93.938 12.93 93.323 12.345 92.621 12.345H82.353C81.871 12.345 81.476 11.968 81.476 11.507V5.607C81.476 5.146 81.871 4.77 82.353 4.77Z" fill="#4456EB"/>
<path fill-rule="evenodd" clip-rule="evenodd" d="M121.757 26.661L115.2 17.592H116.477C116.647 17.592 116.775 17.592 116.946 17.509L117.968 17.091C118.095 17.049 118.223 16.966 118.351 16.841L121.076 14.166C121.189 14.0619 121.277 13.9328 121.331 13.789L121.757 12.787C121.839 12.6472 121.883 12.4888 121.885 12.327V6.72699C121.882 6.61068 121.853 6.49653 121.8 6.39299L121.502 5.51499C121.459 5.38999 121.417 5.26499 121.332 5.18099L118.564 1.54499C118.453 1.3989 118.306 1.28359 118.138 1.20999L116.988 0.624986C116.816 0.539636 116.627 0.496767 116.435 0.499986H104.555C104.257 0.499986 103.959 0.624986 103.703 0.833986L102.341 2.21399C102.085 2.42199 102 2.71399 102 3.04899V27.289C102 27.915 102.51 28.459 103.192 28.459H105.151C105.79 28.459 106.343 27.915 106.343 27.289V17.592H109.793L117.2 28C117.413 28.334 117.796 28.501 118.18 28.501H120.777C121.245 28.501 121.671 28.292 121.884 27.874C122.054 27.498 122.054 26.996 121.756 26.662L121.757 26.661ZM115.455 13.33H107.067C106.684 13.33 106.343 12.995 106.343 12.62V5.51399C106.343 5.09599 106.683 4.76199 107.067 4.76199H115.2C115.315 4.76167 115.429 4.78784 115.532 4.83847C115.635 4.88911 115.726 4.96285 115.796 5.05399L117.371 7.10199C117.458 7.23947 117.502 7.39943 117.499 7.56199V11.322C117.5 11.4158 117.481 11.5087 117.445 11.5951C117.408 11.6814 117.354 11.7593 117.286 11.824L115.966 13.12C115.899 13.187 115.82 13.24 115.732 13.2758C115.644 13.3117 115.551 13.3298 115.456 13.329L115.455 13.33Z" fill="#4456EB"/>
<path fill-rule="evenodd" clip-rule="evenodd" d="M133.353 4.77H145.683C146.43 4.77 147 4.182 147 3.512V1.756C147 1.044 146.43 0.5 145.684 0.5H130.72C130.368 0.5 130.017 0.626 129.754 0.877L128.395 2.174C128.132 2.425 128 2.718 128 3.054V25.905C128 26.24 128.132 26.575 128.395 26.825L129.755 28.123C130.018 28.374 130.37 28.5 130.721 28.5H145.684C146.43 28.5 147 27.914 147 27.244V25.486C147 24.775 146.43 24.189 145.684 24.189H133.354C132.871 24.189 132.476 23.854 132.476 23.394V17.45C132.476 16.99 132.871 16.613 133.353 16.613H143.621C144.323 16.613 144.938 16.069 144.938 15.357V13.6C144.938 12.93 144.323 12.345 143.621 12.345H133.353C132.871 12.345 132.476 11.968 132.476 11.507V5.607C132.476 5.146 132.871 4.77 133.353 4.77Z" fill="#4456EB"/>
<path fill-rule="evenodd" clip-rule="evenodd" d="M170.75 0.5H169C168.292 0.5 167.75 1.085 167.75 1.796V22.356C167.75 22.398 167.708 22.984 167.458 23.486C167.25 23.861 166.917 24.196 165.958 24.196H159.042C158.083 24.196 157.75 23.861 157.542 23.486C157.292 22.984 157.25 22.398 157.25 22.398V1.796C157.25 1.086 156.667 0.5 156 0.5H154.25C153.542 0.5 153 1.085 153 1.796V22.398C153 22.649 153 23.945 153.708 25.324C154.708 27.372 156.625 28.5 159.042 28.5H165.958C168.375 28.5 170.292 27.372 171.292 25.324C171.958 23.944 172 22.649 172 22.398V1.796C172 1.086 171.458 0.5 170.75 0.5Z" fill="#4456EB"/>
<path fill-rule="evenodd" clip-rule="evenodd" d="M199.207 1.23999L197.036 0.563986C196.8 0.477018 196.541 0.475853 196.305 0.560696C196.068 0.645539 195.869 0.810972 195.742 1.02799L189.605 9.93199C189.547 10.0353 189.462 10.1211 189.359 10.1806C189.256 10.24 189.14 10.2709 189.021 10.27C188.897 10.2713 188.774 10.241 188.664 10.1819C188.555 10.1228 188.462 10.0368 188.395 9.93199L182.3 1.02799C182.164 0.809489 181.957 0.644237 181.714 0.559798C181.471 0.475358 181.206 0.476836 180.964 0.563986L178.834 1.23899C178.335 1.40799 178 1.82999 178 2.37999V27.32C178 27.993 178.543 28.5 179.169 28.5H181.089C181.757 28.5 182.258 27.994 182.258 27.318V10.945C182.258 10.565 182.55 10.312 182.801 10.27C183.051 10.185 183.385 10.185 183.636 10.523L186.976 15.418C187.184 15.756 187.56 15.925 187.936 15.925H190.065C190.482 15.925 190.815 15.755 191.066 15.418L194.406 10.523C194.615 10.185 194.991 10.185 195.241 10.27C195.491 10.312 195.742 10.565 195.742 10.945V27.318C195.742 27.994 196.285 28.5 196.911 28.5H198.831C199.5 28.5 200 27.994 200 27.318V2.37799C200 1.82999 199.666 1.40799 199.207 1.23899V1.23999Z" fill="#4456EB"/>
<path fill-rule="evenodd" clip-rule="evenodd" d="M241.875 5.313L241.5 4.351C241.427 4.1957 241.329 4.05399 241.208 3.932L238.583 1.253C238.458 1.17 238.292 1.044 238.167 1.003L237.208 0.583C237.045 0.535074 236.877 0.507201 236.708 0.5H224.583C224.208 0.5 223.875 0.626 223.625 0.877L222.375 2.174C222.125 2.425 222 2.718 222 3.094V27.161C222 27.914 222.583 28.5 223.292 28.5H224.958C225.667 28.5 226.25 27.914 226.25 27.16V18.497C226.25 18.037 226.625 17.618 227.125 17.618H236.708C236.875 17.618 237.042 17.576 237.208 17.534L238.167 17.116C238.292 17.074 238.458 16.948 238.583 16.823L241.208 14.186C241.333 14.06 241.417 13.935 241.5 13.768L241.875 12.805C241.958 12.637 242 12.47 242 12.303V5.815C242 5.648 241.958 5.481 241.875 5.313ZM237.75 11.256C237.75 11.508 237.625 11.716 237.458 11.884L236.292 13.098C236.211 13.1804 236.113 13.2452 236.006 13.2884C235.898 13.3316 235.783 13.3522 235.667 13.349H227.125C226.893 13.3472 226.671 13.2538 226.507 13.0893C226.343 12.9247 226.251 12.7022 226.25 12.47V5.648C226.25 5.188 226.625 4.769 227.125 4.769H235.667C235.917 4.769 236.125 4.853 236.292 5.02L237.458 6.234C237.625 6.401 237.75 6.611 237.75 6.862V11.256Z" fill="#4456EB"/>
<path fill-rule="evenodd" clip-rule="evenodd" d="M265.75 0.5H264C263.292 0.5 262.75 1.085 262.75 1.796V22.356C262.75 22.398 262.708 22.984 262.458 23.486C262.25 23.861 261.917 24.196 260.958 24.196H254.042C253.083 24.196 252.75 23.861 252.542 23.486C252.292 22.984 252.25 22.398 252.25 22.398V1.796C252.25 1.086 251.667 0.5 251 0.5H249.25C248.542 0.5 248 1.085 248 1.796V22.398C248 22.649 248 23.945 248.708 25.324C249.708 27.372 251.625 28.5 254.042 28.5H260.958C263.375 28.5 265.292 27.372 266.292 25.324C266.958 23.944 267 22.649 267 22.398V1.796C267 1.086 266.458 0.5 265.75 0.5Z" fill="#4456EB"/>
<path fill-rule="evenodd" clip-rule="evenodd" d="M290.742 24.23H278.249C277.815 24.23 277.425 23.896 277.425 23.478V1.714C277.425 1.044 276.86 0.5 276.167 0.5H274.258C273.564 0.5 273 1.044 273 1.714V25.989C273 26.282 273.13 26.617 273.347 26.826L274.735 28.166C274.995 28.374 275.299 28.5 275.646 28.5H290.742C291.436 28.5 292 27.998 292 27.328V25.445C292 24.775 291.436 24.231 290.742 24.231V24.23Z" fill="#4456EB"/>
<path fill-rule="evenodd" clip-rule="evenodd" d="M317.917 17.2L317.5 16.237C317.458 16.0763 317.372 15.931 317.25 15.818L314.583 13.14C314.471 13.0183 314.327 12.9311 314.167 12.889L313.208 12.47C313.045 12.4216 312.877 12.3934 312.708 12.386H304.292C304.188 12.389 304.086 12.3681 303.992 12.3247C303.898 12.2813 303.815 12.2167 303.75 12.136L302.5 10.88C302.419 10.8146 302.355 10.7315 302.311 10.6372C302.268 10.5428 302.247 10.4398 302.25 10.336V6.81999C302.25 6.60999 302.333 6.44299 302.5 6.27599L303.75 5.01999C303.897 4.88366 304.091 4.80857 304.292 4.80999H316.25C316.917 4.80999 317.458 4.26699 317.458 3.55499V1.75499C317.458 1.08599 316.917 0.499991 316.25 0.499991H303.292C303.13 0.496686 302.971 0.540456 302.833 0.625991L301.833 1.00199C301.679 1.0752 301.538 1.1743 301.417 1.29499L298.75 3.97399C298.667 4.09899 298.542 4.22499 298.5 4.35099L298.083 5.35499C298.042 5.52199 298 5.64799 298 5.81499V11.34C298 11.508 298.042 11.675 298.083 11.842L298.5 12.805C298.542 12.972 298.667 13.098 298.75 13.223L301.417 15.903C301.542 15.986 301.667 16.111 301.833 16.153L302.833 16.572C302.958 16.614 303.125 16.656 303.292 16.656H311.708C311.812 16.6529 311.914 16.6739 312.008 16.7173C312.102 16.7607 312.185 16.8253 312.25 16.906L313.5 18.12C313.667 18.288 313.75 18.497 313.75 18.706V22.18C313.75 22.39 313.667 22.599 313.5 22.766L312.25 24.022C312.102 24.158 311.909 24.2327 311.708 24.231H299.792C299.627 24.2283 299.462 24.2589 299.309 24.3211C299.156 24.3832 299.017 24.4757 298.9 24.5928C298.784 24.71 298.692 24.8494 298.63 25.0029C298.569 25.1564 298.539 25.3207 298.542 25.486V27.286C298.542 27.956 299.083 28.5 299.792 28.5H312.708C312.875 28.5 313.042 28.5 313.208 28.416L314.167 27.998C314.327 27.9558 314.471 27.8687 314.583 27.747L317.25 25.068C317.361 24.9633 317.447 24.8343 317.5 24.691L317.917 23.687C317.958 23.519 318 23.394 318 23.227V17.702C318 17.534 317.958 17.367 317.917 17.2Z" fill="#4456EB"/>
<path fill-rule="evenodd" clip-rule="evenodd" d="M329.353 4.77H341.683C342.43 4.77 343 4.182 343 3.512V1.756C343 1.044 342.43 0.5 341.684 0.5H326.72C326.368 0.5 326.017 0.626 325.754 0.877L324.395 2.174C324.132 2.425 324 2.718 324 3.054V25.905C324 26.24 324.132 26.575 324.395 26.825L325.755 28.123C326.018 28.374 326.37 28.5 326.721 28.5H341.684C342.43 28.5 343 27.914 343 27.244V25.486C343 24.775 342.43 24.189 341.684 24.189H329.354C328.871 24.189 328.476 23.854 328.476 23.394V17.45C328.476 16.99 328.871 16.613 329.353 16.613H339.621C340.323 16.613 340.938 16.069 340.938 15.357V13.6C340.938 12.93 340.323 12.345 339.621 12.345H329.353C328.871 12.345 328.476 11.968 328.476 11.507V5.607C328.476 5.146 328.871 4.77 329.353 4.77Z" fill="#4456EB"/>
</svg>

